{"glyphs":{":":{"x_min":0,"x_max":279,"ha":279,"o":"m 194 42 q 194 29 189 18 q 185 8 177 0 q 169 -7 160 -11 q 150 -15 140 -15 q 129 -15 119 -10 q 109 -6 102 1 q 94 8 89 19 q 84 29 84 42 q 84 55 90 65 q 95 75 103 82 q 111 88 121 92 q 131 95 140 95 q 148 95 158 92 q 168 88 176 81 q 184 74 189 64 q 194 54 194 42 z m 194 407 q 194 395 190 385 q 185 375 177 368 q 169 361 160 357 q 150 354 141 354 q 129 354 119 358 q 109 362 102 369 q 94 376 90 386 q 85 396 85 407 q 85 418 90 428 q 94 438 102 446 q 109 453 119 457 q 129 461 141 461 q 151 461 161 457 q 171 453 178 446 q 186 438 190 428 q 194 418 194 407 z"},"$":{"x_min":0,"x_max":500,"ha":500,"o":"m 450 165 q 450 125 434 93 q 418 61 391 38 q 364 15 329 1 q 294 -12 257 -15 l 257 -76 l 226 -76 l 226 -15 q 205 -14 181 -10 q 158 -6 135 -1 q 113 4 92 11 q 70 18 53 25 l 53 164 l 74 164 q 79 94 117 60 q 155 25 226 19 l 226 303 q 185 330 153 353 q 121 375 99 400 q 77 424 65 451 q 53 479 53 515 q 53 557 71 586 q 88 616 115 635 q 141 653 171 663 q 201 672 226 674 l 226 719 l 257 719 l 257 674 q 276 673 293 670 q 311 667 324 665 l 355 654 q 379 646 418 630 l 418 484 l 399 484 q 396 518 388 546 q 379 573 363 593 q 346 613 320 625 q 294 637 257 641 l 257 393 q 311 354 348 326 q 385 298 407 273 q 430 249 440 223 q 450 198 450 165 z m 373 141 q 373 162 365 180 q 357 197 343 213 q 328 229 306 246 q 285 262 257 282 l 257 19 q 271 20 290 26 q 310 33 328 47 q 347 62 360 84 q 373 107 373 141 z m 226 641 q 214 639 198 635 q 181 630 166 620 q 150 609 140 592 q 129 574 129 545 q 129 520 139 499 q 149 479 164 462 q 179 446 196 434 q 213 422 226 414 z"},"?":{"x_min":0,"x_max":444,"ha":444,"o":"m 269 42 q 269 28 264 18 q 259 7 252 0 q 244 -6 235 -10 q 225 -14 216 -14 q 205 -14 195 -10 q 185 -6 177 1 q 169 8 165 18 q 160 28 160 42 q 160 53 164 63 q 169 73 177 81 q 185 88 195 92 q 205 96 216 96 q 226 96 236 92 q 245 88 252 81 q 260 74 264 64 q 269 54 269 42 z m 404 523 q 404 496 396 472 q 389 448 377 427 q 366 407 353 391 q 339 375 328 362 q 302 333 283 310 q 264 287 251 264 q 238 241 231 216 q 224 190 222 156 l 201 156 q 203 186 207 212 q 211 239 219 265 q 228 292 240 317 q 251 343 268 370 q 275 383 283 400 q 292 417 298 437 q 305 456 310 477 q 314 497 314 516 q 314 553 303 578 q 293 604 276 620 q 260 636 240 643 q 219 650 200 650 q 177 650 159 645 q 142 639 130 629 q 119 620 113 608 q 107 597 107 586 q 107 576 112 564 q 117 553 123 542 q 129 531 134 521 q 139 511 139 502 q 139 492 135 484 q 131 476 125 471 q 120 465 113 463 q 105 460 99 460 q 94 460 85 463 q 76 466 67 475 q 58 483 52 498 q 45 513 45 537 q 45 564 56 590 q 68 615 90 635 q 113 654 146 666 q 179 678 221 678 q 261 678 294 667 q 328 657 353 637 q 377 617 391 588 q 404 560 404 523 z"},"<":{"x_min":0,"x_max":962,"ha":962,"o":"m 193 259 l 193 319 l 770 540 l 770 480 l 254 289 l 770 97 l 770 38 z"},"'":{"x_min":0,"x_max":181,"ha":181,"o":"m 140 625 q 140 617 136 595 q 133 572 126 536 l 100 393 l 78 393 l 52 537 q 46 568 44 588 q 42 608 42 619 q 42 649 53 664 q 64 678 87 678 q 101 678 111 673 q 121 668 127 660 q 134 652 137 643 q 140 634 140 625 z"},"=":{"x_min":0,"x_max":962,"ha":962,"o":"m 193 171 l 193 231 l 770 231 l 770 171 z m 193 346 l 193 406 l 770 406 l 770 346 z"},"a":{"x_min":0,"x_max":444,"ha":444,"o":"m 444 64 q 389 -8 337 -8 q 326 -8 317 -5 q 307 -1 300 7 q 293 15 289 29 q 285 43 285 64 q 255 42 236 27 q 217 13 202 5 q 187 -3 174 -6 q 160 -8 143 -8 q 119 -8 99 0 q 80 8 65 23 q 51 38 43 59 q 36 80 36 106 q 36 131 45 153 q 54 176 81 198 q 107 221 156 245 q 205 269 285 296 l 285 315 q 285 347 280 369 q 274 391 264 405 q 254 419 238 425 q 223 431 201 431 q 170 431 153 415 q 135 399 134 376 l 135 347 q 136 326 124 314 q 113 301 94 301 q 75 301 64 314 q 53 326 53 348 q 53 375 67 395 q 80 416 103 430 q 125 445 155 452 q 185 460 217 460 q 265 460 295 449 q 324 439 340 419 q 356 399 362 371 q 367 343 367 308 l 367 155 q 367 124 368 104 q 369 84 369 77 q 372 64 376 59 q 381 53 391 53 q 395 53 399 54 q 403 56 408 60 q 414 63 422 71 q 430 79 444 93 z m 285 268 q 228 246 195 227 q 162 209 145 192 q 128 176 123 160 q 119 145 119 129 q 119 111 124 97 q 129 82 138 71 q 147 60 160 54 q 172 47 187 47 q 206 46 230 59 q 254 71 285 96 z"},"L":{"x_min":0,"x_max":611,"ha":611,"o":"m 533 0 l 19 0 l 19 19 q 40 19 58 21 q 76 23 89 32 q 102 40 109 56 q 116 73 116 101 l 116 561 q 116 589 109 606 q 102 622 89 631 q 76 639 58 641 q 40 644 19 644 l 19 662 l 306 662 l 306 644 q 284 644 266 641 q 249 639 236 631 q 223 622 216 606 q 208 589 208 561 l 208 125 q 208 97 213 80 q 218 64 229 56 q 239 47 254 45 q 270 42 292 42 l 359 42 q 389 42 411 43 q 433 44 449 48 q 465 51 477 56 q 489 62 500 71 q 512 82 522 93 q 531 103 540 116 q 548 128 556 145 q 564 161 574 183 l 591 180 z"},"3":{"x_min":0,"x_max":500,"ha":500,"o":"m 418 219 q 418 168 400 126 q 382 83 348 53 q 314 22 265 5 q 217 -12 156 -12 q 128 -12 109 -9 q 90 -6 77 -1 q 64 3 57 9 q 50 15 46 21 q 43 27 42 33 q 42 38 42 42 q 42 49 45 55 q 48 61 53 66 q 59 71 65 73 q 72 76 80 76 q 98 76 113 69 q 128 62 144 54 q 159 45 178 38 q 196 31 221 31 q 243 31 265 40 q 287 49 305 66 q 323 83 334 107 q 345 130 345 160 q 345 193 337 218 q 329 243 315 260 q 302 278 284 291 q 267 303 249 310 q 207 328 152 328 l 152 344 q 159 344 172 347 q 186 351 202 358 q 219 365 237 376 q 255 387 270 404 q 284 421 294 444 q 303 467 303 498 q 303 530 292 551 q 281 572 265 585 q 249 598 229 604 q 210 609 194 609 q 118 609 67 528 l 51 536 q 56 546 63 561 q 69 575 79 591 q 89 606 103 622 q 116 637 134 649 q 152 662 176 669 q 200 677 230 677 q 262 677 286 669 q 310 662 327 649 q 344 637 355 622 q 366 607 372 592 q 379 577 381 564 q 384 551 384 542 q 384 506 362 469 q 340 432 294 393 q 311 387 332 375 q 353 363 372 342 q 391 322 405 292 q 418 261 418 219 z"},";":{"x_min":0,"x_max":279,"ha":279,"o":"m 229 -5 q 229 -36 217 -62 q 205 -87 185 -107 q 165 -127 139 -142 q 112 -157 83 -167 l 83 -145 q 102 -140 121 -129 q 140 -117 155 -101 q 169 -85 179 -64 q 188 -43 188 -19 q 188 -14 187 -7 q 185 0 178 0 q 172 0 167 -2 q 162 -4 157 -7 q 152 -10 147 -12 q 142 -15 136 -15 q 125 -15 116 -11 q 106 -8 99 -1 q 92 5 88 16 q 83 26 83 41 q 83 54 89 64 q 94 75 103 82 q 111 89 123 93 q 134 97 147 97 q 161 97 176 91 q 190 84 202 71 q 214 59 221 40 q 229 21 229 -5 z m 207 408 q 207 396 202 386 q 197 376 190 369 q 182 362 173 358 q 163 354 153 354 q 142 354 132 359 q 122 363 115 370 q 107 377 103 387 q 98 396 98 408 q 98 419 103 429 q 107 439 115 447 q 122 454 132 458 q 142 462 153 462 q 164 462 174 458 q 183 454 190 447 q 198 439 202 429 q 207 419 207 408 z"},"J":{"x_min":0,"x_max":390,"ha":390,"o":"m 359 645 q 338 645 324 638 q 311 632 300 621 q 289 604 289 545 l 289 221 q 289 170 280 133 q 272 96 258 70 q 245 43 227 27 q 209 10 190 1 q 171 -9 153 -12 q 134 -16 119 -16 q 95 -16 76 -9 q 58 -3 46 8 q 33 19 27 32 q 21 45 21 60 q 21 73 25 83 q 29 92 36 99 q 43 105 52 108 q 61 111 70 111 q 85 111 95 104 q 104 97 111 87 q 117 77 122 65 q 126 53 131 43 q 136 33 143 26 q 149 19 159 19 q 165 19 171 23 q 178 27 183 36 q 188 44 192 59 q 195 73 195 94 l 195 545 q 195 575 194 592 q 192 608 186 618 q 183 623 176 628 q 170 633 161 636 q 153 640 143 642 q 133 645 123 645 l 100 645 l 100 662 l 383 662 l 383 645 z"},"V":{"x_min":0,"x_max":723,"ha":723,"o":"m 710 645 q 693 642 679 637 q 666 631 657 623 q 632 599 611 549 l 380 -16 l 362 -16 l 115 556 q 106 578 100 590 q 93 602 88 608 q 83 615 80 618 q 76 621 71 625 q 60 633 46 638 q 32 643 8 645 l 8 662 l 279 662 l 279 645 q 250 642 234 636 q 218 631 212 621 q 203 608 207 585 q 211 562 228 523 l 397 135 l 554 520 q 568 556 574 579 q 580 601 572 614 q 569 619 565 623 q 562 626 554 630 q 547 634 536 638 q 524 642 506 645 l 506 662 l 710 662 z"},"\"":{"x_min":0,"x_max":408,"ha":408,"o":"m 164 625 q 164 615 160 593 q 157 571 150 536 l 123 393 l 103 393 l 76 537 q 70 567 68 587 q 65 607 65 619 q 65 652 79 665 q 92 678 114 678 q 136 678 150 663 q 164 648 164 625 z m 343 625 q 343 616 341 594 q 339 571 332 535 l 305 393 l 281 393 l 255 535 q 249 566 246 587 q 244 607 244 619 q 244 650 257 664 q 270 678 293 678 q 317 678 330 662 q 343 647 343 625 z"},"7":{"x_min":0,"x_max":500,"ha":500,"o":"m 234 -15 l 180 -15 l 378 582 l 196 582 q 156 582 131 574 q 106 566 91 555 q 76 543 67 529 q 59 515 51 501 l 37 506 l 101 662 l 455 662 l 455 645 z"},"S":{"x_min":0,"x_max":556,"ha":556,"o":"m 503 169 q 503 131 488 98 q 473 64 445 39 q 417 14 379 -1 q 340 -16 294 -16 q 261 -16 233 -10 q 205 -4 183 3 q 161 11 145 17 q 128 22 116 22 q 104 22 97 14 q 90 6 86 -16 l 69 -16 l 69 212 l 86 212 q 93 161 111 125 q 129 89 156 66 q 183 43 216 33 q 249 23 284 23 q 314 23 339 32 q 363 41 380 55 q 397 70 407 90 q 416 109 416 131 q 416 156 407 174 q 399 193 380 210 q 361 228 330 246 q 300 265 256 290 q 197 323 160 349 q 122 375 101 399 q 79 423 71 448 q 63 473 63 503 q 63 539 77 570 q 90 602 115 625 q 141 649 176 664 q 212 678 256 678 q 285 678 309 672 q 333 666 351 659 q 370 652 384 646 q 398 641 409 641 q 420 641 428 649 q 436 657 441 678 l 459 678 l 459 448 l 441 448 q 436 495 420 531 q 404 566 379 591 q 354 615 323 627 q 292 639 257 639 q 233 639 212 631 q 190 623 175 609 q 159 595 150 576 q 141 558 141 537 q 141 518 148 501 q 155 485 174 468 q 192 450 224 430 q 256 410 305 384 q 353 358 384 339 q 415 320 432 307 q 466 282 485 246 q 503 210 503 169 z"},"}":{"x_min":0,"x_max":479,"ha":479,"o":"m 372 227 q 354 225 334 217 q 314 208 298 195 q 281 181 271 162 q 260 144 260 120 q 260 104 263 86 q 267 68 271 50 q 275 31 278 11 q 282 -8 282 -28 q 282 -64 267 -97 q 251 -130 226 -155 q 201 -180 168 -196 q 135 -212 100 -216 l 100 -198 q 124 -192 144 -181 q 164 -170 178 -154 q 193 -138 201 -117 q 208 -96 208 -69 q 208 -52 205 -35 q 202 -19 198 -2 q 194 14 191 31 q 188 47 188 64 q 188 97 198 125 q 208 153 225 175 q 243 197 268 213 q 292 229 321 240 q 292 250 268 266 q 243 283 225 304 q 208 326 198 353 q 188 380 188 413 q 188 431 191 448 q 194 464 198 481 q 202 498 205 514 q 208 531 208 548 q 208 575 201 596 q 193 618 178 634 q 164 649 144 660 q 124 671 100 678 l 100 695 q 134 691 167 676 q 199 660 225 636 q 250 612 266 581 q 282 549 282 514 q 282 494 278 473 q 275 452 271 432 q 267 412 263 393 q 260 374 260 357 q 260 334 271 315 q 282 297 298 284 q 315 271 334 262 q 354 254 372 252 z"},"Z":{"x_min":0,"x_max":611,"ha":611,"o":"m 553 0 l 14 0 l 14 19 l 437 624 l 226 624 q 188 624 166 618 q 144 612 130 600 q 124 594 118 586 q 113 578 108 566 q 103 555 99 538 q 95 521 91 497 l 72 497 l 85 662 l 576 662 l 141 41 l 412 41 q 443 41 467 47 q 490 53 507 67 q 524 81 539 108 q 554 136 568 178 l 583 175 z"},"x":{"x_min":0,"x_max":500,"ha":500,"o":"m 277 0 l 277 19 q 296 19 305 23 q 315 28 319 35 q 322 42 321 49 q 320 57 317 62 l 224 198 l 127 68 q 122 62 120 54 q 118 45 122 38 q 125 30 135 24 q 145 19 164 19 l 164 0 l 18 0 l 18 19 q 27 19 36 23 q 44 27 54 36 q 64 45 78 61 q 91 77 109 102 l 204 227 l 119 350 q 101 377 88 392 q 75 408 64 416 q 53 424 41 426 q 30 429 14 429 l 14 447 l 224 447 l 224 429 q 209 430 201 426 q 193 422 190 417 q 186 411 187 404 q 187 398 189 394 l 253 293 l 319 390 q 323 395 324 402 q 326 409 323 415 q 320 421 312 425 q 304 429 290 429 l 290 447 l 441 447 l 441 429 q 426 429 414 424 q 401 419 389 410 q 377 400 364 384 q 351 368 333 344 l 272 262 l 384 102 q 394 87 401 78 q 407 69 413 62 q 419 55 426 48 q 433 41 443 31 q 447 26 460 23 q 474 19 489 19 l 489 0 z"},")":{"x_min":0,"x_max":333,"ha":333,"o":"m 293 239 q 293 164 273 94 q 253 23 217 -36 q 181 -96 131 -142 q 81 -188 22 -215 l 22 -196 q 64 -174 97 -136 q 130 -98 153 -44 q 175 9 187 77 q 199 145 199 226 q 199 258 198 296 q 197 334 191 375 q 186 416 175 457 q 164 499 144 538 q 124 578 94 613 q 64 648 22 676 l 22 695 q 86 663 137 615 q 188 567 222 509 q 257 450 275 381 q 293 312 293 239 z"},"&":{"x_min":0,"x_max":779,"ha":779,"o":"m 399 107 q 367 153 344 184 q 322 215 310 237 q 297 258 284 282 q 271 307 255 337 q 241 329 221 316 q 201 303 182 283 q 164 264 151 237 q 139 210 139 175 q 139 151 146 127 q 154 104 170 85 q 186 67 208 55 q 231 44 262 44 q 284 44 304 50 q 324 56 341 66 q 358 75 373 86 q 387 98 399 107 z m 444 560 q 444 579 438 594 q 432 609 422 620 q 411 631 397 637 q 384 643 369 643 q 343 643 326 632 q 309 621 300 606 q 290 591 286 577 q 283 562 283 555 q 283 538 287 519 q 291 500 297 482 q 303 463 310 446 q 317 429 324 415 q 339 422 360 434 q 381 445 399 463 q 418 480 431 505 q 444 529 444 560 z m 748 119 q 744 101 734 77 q 724 54 707 33 q 689 13 662 -1 q 635 -16 597 -16 q 568 -16 542 -6 q 517 3 495 18 q 474 32 456 49 q 438 65 425 80 q 410 67 390 50 q 370 34 344 19 q 317 4 285 -6 q 252 -16 212 -16 q 168 -16 135 -3 q 103 10 81 31 q 59 52 48 78 q 37 104 37 131 q 37 162 46 188 q 56 215 72 238 q 87 261 108 280 q 129 300 151 316 q 174 333 197 346 q 220 359 240 370 q 234 383 227 399 q 220 415 214 434 q 208 452 203 473 q 199 494 199 516 q 199 558 215 589 q 230 619 254 639 q 279 659 309 668 q 339 678 369 678 q 401 678 426 668 q 451 658 468 641 q 484 625 493 603 q 501 581 501 558 q 501 535 494 515 q 486 495 473 478 q 460 461 443 447 q 427 433 409 421 q 391 409 374 400 q 356 390 341 382 q 401 272 470 180 q 556 282 556 354 q 556 371 550 381 q 544 392 536 398 q 528 404 521 406 q 513 408 510 408 l 510 426 l 716 426 l 716 408 q 696 405 682 402 q 667 399 655 389 q 642 378 627 357 q 612 336 591 296 q 570 257 545 221 q 521 185 494 151 q 504 139 519 123 q 534 107 552 93 q 570 79 592 69 q 614 60 640 60 q 664 60 680 67 q 696 75 706 86 q 716 98 722 110 q 727 123 729 132 z"},"_":{"x_min":0,"x_max":314,"ha":314,"o":"m 0 -144 l 0 -91 l 314 -91 l 314 -144 z"},"v":{"x_min":0,"x_max":500,"ha":500,"o":"m 492 429 q 479 428 470 426 q 462 424 456 419 q 447 411 440 399 q 433 388 425 370 l 267 -15 l 246 -15 l 85 365 q 81 377 76 386 q 71 395 65 401 q 60 407 54 412 q 48 417 42 421 q 37 424 29 425 q 21 427 7 429 l 7 447 l 219 447 l 219 429 l 205 429 q 196 429 188 427 q 180 426 176 420 q 167 410 166 395 q 165 379 176 354 l 280 107 l 385 365 q 394 385 396 397 q 398 410 393 418 q 392 420 389 422 q 386 424 381 426 q 376 427 367 428 q 359 429 345 429 l 345 447 l 492 447 z"},"O":{"x_min":0,"x_max":723,"ha":723,"o":"m 683 335 q 683 285 672 240 q 661 194 640 155 q 619 116 590 85 q 561 53 524 31 q 488 8 446 -4 q 404 -16 358 -16 q 291 -16 232 10 q 173 35 129 81 q 85 126 60 191 q 35 255 35 333 q 35 407 60 470 q 85 534 130 580 q 175 626 235 652 q 296 678 367 678 q 410 678 450 666 q 491 654 526 633 q 561 611 590 581 q 619 550 639 512 q 660 474 672 429 q 683 385 683 335 z m 573 322 q 573 398 560 458 q 547 517 520 558 q 493 599 452 621 q 411 643 356 643 q 306 643 267 622 q 229 601 202 561 q 175 521 161 464 q 147 407 147 336 q 147 266 161 208 q 174 149 201 108 q 227 66 266 43 q 306 20 357 19 q 404 19 444 37 q 483 55 512 93 q 541 130 556 187 q 572 244 573 322 z"},"(":{"x_min":0,"x_max":333,"ha":333,"o":"m 310 -215 q 249 -187 199 -139 q 149 -92 115 -32 q 80 27 61 97 q 42 167 42 241 q 42 315 61 385 q 81 455 116 514 q 151 574 200 620 q 250 667 310 695 l 310 675 q 269 653 237 615 q 204 577 181 524 q 159 471 147 403 q 135 334 135 253 q 135 213 137 171 q 140 129 146 87 q 153 45 165 4 q 177 -37 196 -73 q 216 -110 244 -141 q 271 -173 310 -196 z"},"C":{"x_min":0,"x_max":668,"ha":668,"o":"m 632 155 q 608 112 580 80 q 551 48 518 27 q 484 5 444 -5 q 405 -16 358 -16 q 307 -16 264 -3 q 220 9 184 31 q 148 54 121 85 q 93 116 74 154 q 55 191 45 234 q 36 276 36 321 q 36 394 60 458 q 84 523 128 572 q 172 621 235 649 q 297 678 374 678 q 411 678 440 670 q 468 663 489 655 q 510 646 523 639 q 537 631 544 631 q 558 631 569 643 q 580 654 585 678 l 603 678 l 618 453 l 603 453 q 587 503 565 540 q 543 576 515 599 q 487 622 454 632 q 420 643 381 643 q 330 643 287 624 q 244 604 213 564 q 182 524 165 464 q 147 403 147 320 q 147 250 165 195 q 183 140 215 103 q 248 66 294 47 q 339 28 396 28 q 428 28 456 34 q 484 40 510 55 q 537 71 563 97 q 589 124 618 166 z"},"W":{"x_min":0,"x_max":945,"ha":945,"o":"m 937 645 q 925 645 915 643 q 905 641 896 636 q 888 631 880 623 q 872 614 864 601 q 860 592 852 572 q 843 552 833 520 l 648 -16 l 628 -16 l 479 408 l 328 -16 l 310 -16 l 114 535 q 104 562 98 579 q 92 595 88 604 q 84 612 81 616 q 78 621 73 624 q 64 635 50 640 q 36 645 14 645 l 14 662 l 258 662 l 258 645 l 246 645 q 210 645 199 623 q 197 618 196 612 q 194 607 196 597 q 197 587 202 570 q 207 554 216 526 l 345 154 l 456 470 q 445 507 432 539 q 427 552 421 566 q 415 580 408 592 q 402 604 395 614 q 389 623 382 628 q 372 637 361 641 q 349 645 328 645 l 328 662 l 586 662 l 586 645 l 569 645 q 516 645 516 602 q 516 588 521 567 q 526 546 537 515 l 665 154 l 791 520 q 798 542 803 558 q 809 575 811 587 q 812 599 811 608 q 810 617 805 624 q 795 636 779 640 q 762 645 739 645 l 739 662 l 937 662 z"},"A":{"x_min":0,"x_max":719,"ha":719,"o":"m 450 0 l 450 19 q 485 19 500 29 q 514 38 517 53 q 519 68 512 88 q 506 107 498 127 l 458 222 l 201 222 l 156 117 q 147 94 142 77 q 137 60 142 48 q 147 36 165 29 q 182 21 217 19 l 217 0 l 7 0 l 7 19 q 28 20 44 28 q 60 35 72 49 q 84 63 95 84 q 106 105 118 132 l 350 678 l 368 678 l 598 127 q 612 92 624 72 q 636 51 648 40 q 661 28 676 24 q 690 20 711 19 l 711 0 z m 332 526 l 217 258 l 444 258 z"},"f":{"x_min":0,"x_max":333,"ha":333,"o":"m 435 611 q 435 604 432 597 q 429 590 424 584 q 418 578 411 574 q 404 570 396 570 q 383 570 374 576 q 365 583 357 593 q 349 603 341 614 q 333 625 324 635 q 315 645 303 652 q 291 658 273 658 q 250 658 237 648 q 223 638 216 616 q 209 594 208 561 q 206 527 206 479 l 206 447 l 321 447 l 321 412 l 206 412 l 206 119 q 206 87 209 67 q 212 47 220 40 q 236 19 269 19 l 309 19 l 309 0 l 40 0 l 40 19 l 60 19 q 71 19 82 21 q 93 24 104 34 q 110 39 114 45 q 118 51 120 60 q 122 69 123 83 q 124 97 124 119 l 124 412 l 37 412 l 37 447 l 124 447 l 124 478 q 124 528 136 564 q 147 600 166 624 q 184 648 206 662 q 229 676 250 684 q 271 691 287 693 q 304 695 312 695 q 333 695 355 688 q 377 681 395 670 q 413 658 424 643 q 435 628 435 611 z"},"Q":{"x_min":0,"x_max":723,"ha":723,"o":"m 684 331 q 684 271 667 216 q 649 162 617 118 q 585 74 541 42 q 496 10 441 -6 q 465 -49 492 -80 q 518 -111 547 -133 q 577 -154 610 -166 q 643 -177 681 -180 l 681 -196 q 622 -194 562 -177 q 503 -160 449 -134 q 396 -108 350 -75 q 304 -42 272 -6 q 207 17 161 52 q 116 88 88 133 q 60 177 47 228 q 35 279 35 332 q 35 382 46 427 q 58 472 79 510 q 100 549 130 580 q 160 611 197 633 q 233 654 276 666 q 318 678 365 678 q 431 678 489 652 q 547 626 591 580 q 634 534 659 470 q 684 407 684 331 z m 573 319 q 573 393 559 452 q 545 512 518 554 q 491 596 450 618 q 410 641 358 641 q 309 641 270 621 q 230 601 203 562 q 176 523 162 465 q 147 408 147 332 q 147 262 161 205 q 174 147 201 106 q 228 64 267 42 q 307 19 358 19 q 409 18 449 39 q 489 59 517 98 q 544 137 558 193 q 573 249 573 319 z"},"w":{"x_min":0,"x_max":723,"ha":723,"o":"m 714 429 q 671 423 650 373 l 501 -15 l 481 -15 l 369 272 l 240 -15 l 221 -15 l 77 362 q 70 380 63 392 q 56 403 49 410 q 43 417 32 421 q 21 426 6 429 l 6 447 l 194 447 l 194 429 q 168 428 160 420 q 151 412 151 398 q 151 385 160 362 l 256 105 l 353 315 l 327 381 q 315 410 296 421 q 285 428 256 429 l 256 447 l 469 447 l 469 429 q 451 428 439 426 q 427 423 419 418 q 417 415 414 410 q 412 405 410 398 q 409 392 410 385 q 411 378 414 373 l 516 116 l 609 362 q 620 389 620 404 q 620 407 618 411 q 617 416 612 420 q 607 424 598 427 q 588 429 573 429 l 573 447 l 714 447 z"},"-":{"x_min":0,"x_max":333,"ha":333,"o":"m 41 187 l 41 261 l 293 261 l 293 187 z"},"E":{"x_min":0,"x_max":611,"ha":611,"o":"m 531 0 l 21 0 l 21 19 l 44 19 q 48 19 55 19 q 62 20 69 22 q 77 23 84 26 q 91 29 96 34 q 101 38 105 43 q 108 49 111 58 q 113 67 115 82 q 116 96 116 118 l 116 547 q 116 580 112 599 q 109 618 103 625 q 85 645 44 645 l 21 645 l 21 662 l 531 662 l 539 518 l 520 518 q 516 532 513 546 q 511 559 506 571 q 501 583 494 594 q 487 604 474 611 q 461 618 441 622 q 421 626 392 626 l 208 626 l 208 365 l 354 365 q 388 365 407 370 q 427 375 437 387 q 447 399 451 417 q 456 435 459 460 l 478 460 l 478 230 l 459 230 q 456 256 451 274 q 447 293 437 305 q 426 317 407 323 q 388 328 354 328 l 208 328 l 208 80 q 208 67 213 57 q 218 47 229 41 q 241 36 265 36 l 376 36 q 403 36 424 38 q 444 40 461 45 q 477 51 490 60 q 503 70 515 84 q 528 99 541 119 q 553 139 569 167 l 589 167 z"},"s":{"x_min":0,"x_max":390,"ha":390,"o":"m 354 113 q 354 87 342 64 q 330 41 310 23 q 289 6 262 -4 q 235 -15 205 -15 q 187 -15 170 -10 q 153 -6 138 -1 q 123 4 109 9 q 96 14 84 16 q 79 16 75 8 q 70 0 67 -6 l 51 -6 l 51 153 l 67 153 q 74 119 87 94 q 101 68 119 51 q 137 33 159 24 q 181 16 205 16 q 223 16 237 21 q 251 26 261 35 q 271 44 276 56 q 282 68 282 82 q 282 98 278 112 q 274 126 262 139 q 250 153 227 168 q 205 183 168 201 q 133 220 110 236 q 86 252 73 269 q 60 285 54 303 q 49 320 49 341 q 49 366 58 387 q 68 409 86 425 q 105 441 132 451 q 159 460 194 460 q 209 460 224 457 q 239 455 252 451 q 266 448 276 446 q 286 443 292 443 q 299 443 303 446 q 308 448 314 460 l 330 460 l 330 308 l 314 308 q 305 344 293 368 q 281 392 266 406 q 250 420 232 426 q 214 432 193 432 q 148 432 127 416 q 106 399 106 374 q 105 360 108 348 q 111 335 119 324 q 127 312 141 302 q 156 291 179 280 l 251 246 q 302 223 328 189 q 354 155 354 113 z"},">":{"x_min":0,"x_max":962,"ha":962,"o":"m 193 38 l 193 97 l 708 289 l 193 480 l 193 540 l 770 319 l 770 259 z"},"l":{"x_min":0,"x_max":278,"ha":278,"o":"m 38 0 l 38 19 q 60 19 71 21 q 82 23 89 34 q 92 38 95 43 q 97 48 99 56 q 101 63 102 74 q 103 85 103 101 l 103 507 q 103 545 102 567 q 102 589 100 601 q 98 612 96 617 q 93 621 89 625 q 85 627 80 629 q 75 631 69 631 q 63 631 56 629 q 48 627 38 624 l 29 641 l 164 695 l 185 695 l 185 101 q 185 86 185 76 q 186 65 188 58 q 189 50 191 45 q 194 40 197 36 q 201 31 205 28 q 209 25 216 23 q 223 21 233 20 q 243 19 257 19 l 257 0 z"},"8":{"x_min":0,"x_max":500,"ha":500,"o":"m 443 157 q 443 142 439 124 q 436 105 427 87 q 418 68 404 50 q 390 33 368 19 q 347 5 318 -3 q 289 -12 250 -12 q 204 -12 168 3 q 132 18 108 42 q 84 65 72 94 q 60 123 60 151 q 60 183 73 210 q 87 238 108 261 q 128 284 151 302 q 174 320 193 333 q 173 350 151 368 q 129 387 111 409 q 93 432 81 458 q 68 485 68 519 q 68 556 83 585 q 98 614 123 635 q 148 655 181 666 q 214 677 250 677 q 286 677 313 669 q 341 661 361 648 q 380 635 393 619 q 406 604 414 588 q 422 572 425 557 q 428 543 428 533 q 428 504 415 479 q 401 455 381 434 q 360 414 336 397 q 312 381 292 368 q 313 351 340 330 q 366 309 389 282 q 412 256 427 225 q 443 194 443 157 z m 358 539 q 358 570 349 591 q 339 612 324 625 q 310 637 291 642 q 271 647 251 647 q 229 647 208 641 q 188 635 173 623 q 158 610 149 593 q 140 575 140 552 q 140 527 148 507 q 157 487 173 469 q 190 450 214 430 q 238 411 269 386 q 288 403 304 419 q 320 434 332 451 q 344 469 351 490 q 358 511 358 539 z m 374 118 q 374 139 366 158 q 358 177 346 195 q 333 213 317 229 q 301 246 283 260 q 266 275 248 289 q 231 303 216 316 q 206 307 192 293 q 178 279 165 259 q 152 239 144 213 q 135 187 135 153 q 135 120 144 94 q 154 69 170 51 q 187 34 209 25 q 231 16 257 16 q 281 16 302 22 q 323 29 339 42 q 355 55 364 74 q 374 93 374 118 z"},"\\":{"x_min":0,"x_max":278,"ha":278,"o":"m 242 -15 l 1 695 l 43 695 l 282 -15 z"},"e":{"x_min":0,"x_max":444,"ha":444,"o":"m 416 164 q 411 131 396 99 q 381 67 357 42 q 334 17 302 1 q 271 -15 232 -15 q 192 -15 157 2 q 121 18 94 49 q 68 79 52 122 q 37 166 37 219 q 37 275 52 320 q 67 365 95 396 q 123 428 161 444 q 199 461 244 461 q 281 461 313 448 q 344 436 367 413 q 390 389 403 355 q 416 322 416 279 l 106 279 q 106 229 119 190 q 132 150 155 123 q 177 96 207 81 q 236 67 269 66 q 291 66 310 71 q 329 76 345 89 q 361 101 375 122 q 389 143 400 173 z m 314 307 q 314 344 303 367 q 292 390 277 403 q 262 417 246 421 q 229 426 217 426 q 197 426 178 418 q 160 411 145 396 q 129 380 119 358 q 109 335 106 307 z"},"b":{"x_min":0,"x_max":500,"ha":500,"o":"m 466 242 q 466 187 447 139 q 428 92 396 58 q 365 24 323 5 q 281 -15 235 -15 q 196 -15 156 0 q 116 14 72 43 l 72 506 q 72 544 72 566 q 71 588 69 600 q 67 611 64 616 q 61 621 57 625 q 49 631 37 631 q 26 631 3 624 l -4 641 l 131 695 l 154 695 l 154 370 q 219 460 294 460 q 329 460 360 445 q 391 430 414 402 q 438 374 452 333 q 466 293 466 242 z m 381 214 q 381 256 371 289 q 361 322 344 345 q 327 368 304 380 q 281 392 255 392 q 247 392 236 390 q 226 389 214 383 q 202 378 188 367 q 173 357 154 340 l 154 71 q 178 47 205 35 q 231 22 260 22 q 282 22 303 34 q 325 46 343 70 q 360 94 371 130 q 381 166 381 214 z"},"%":{"x_min":0,"x_max":865,"ha":865,"o":"m 375 556 q 375 569 371 580 q 368 591 366 603 q 352 606 342 612 q 332 618 324 624 q 316 629 309 633 q 303 636 296 636 q 287 636 273 628 q 259 620 243 605 q 227 590 210 569 q 194 548 181 521 q 168 495 160 464 q 152 433 152 398 q 152 382 155 369 q 158 355 166 345 q 173 335 185 330 q 197 324 215 324 q 237 324 258 334 q 278 345 296 363 q 313 380 328 404 q 343 427 353 452 q 363 478 369 505 q 375 532 375 556 z m 764 243 q 764 257 760 272 q 755 287 747 299 q 738 311 725 319 q 712 326 695 326 q 673 326 654 315 q 634 303 617 284 q 601 265 587 240 q 573 214 563 188 q 553 161 547 135 q 542 108 542 85 q 542 71 545 59 q 549 46 556 37 q 563 27 575 22 q 587 17 604 17 q 628 17 649 28 q 670 39 688 57 q 706 76 720 99 q 734 123 744 148 q 753 173 759 198 q 764 223 764 243 z m 265 -15 l 217 -15 l 567 614 q 544 604 520 598 q 495 592 472 590 q 449 587 428 589 q 408 590 393 596 q 393 584 397 570 q 400 555 400 542 q 400 508 391 476 q 382 444 367 416 q 352 388 331 365 q 311 342 288 325 q 265 308 241 299 q 217 290 195 290 q 136 290 106 325 q 76 361 76 427 q 76 454 84 482 q 92 510 107 536 q 122 563 142 586 q 162 610 186 627 q 210 645 238 655 q 265 665 293 665 q 313 665 327 661 q 340 657 351 651 q 361 645 370 637 q 379 630 390 624 q 401 618 416 614 q 431 609 454 610 q 476 610 498 615 q 520 620 539 629 q 558 638 574 651 q 591 664 604 680 l 651 680 z m 790 248 q 790 189 771 141 q 753 92 724 58 q 695 23 660 4 q 625 -15 593 -15 q 555 -15 530 -4 q 505 7 491 26 q 477 45 471 70 q 466 95 466 123 q 466 150 474 178 q 482 207 497 233 q 512 259 532 282 q 552 305 576 322 q 601 339 628 349 q 655 359 683 359 q 708 359 729 349 q 749 339 762 323 q 776 308 783 288 q 790 268 790 248 z"},"m":{"x_min":0,"x_max":779,"ha":779,"o":"m 554 0 l 554 19 q 580 19 594 23 q 609 27 616 37 q 623 47 624 63 q 625 79 625 101 l 625 294 q 625 325 621 345 q 617 366 607 378 q 598 391 584 397 q 570 402 552 402 q 541 402 528 400 q 515 397 501 390 q 486 383 470 372 q 454 360 436 342 l 436 101 q 436 77 438 61 q 439 45 447 36 q 454 26 468 22 q 482 19 508 19 l 508 0 l 281 0 l 281 19 q 310 19 325 23 q 340 28 346 39 q 353 49 354 64 q 354 80 354 101 l 354 294 q 354 324 349 345 q 344 366 334 379 q 324 392 310 397 q 296 403 278 403 q 261 403 244 398 q 228 392 214 383 q 199 375 187 364 q 174 353 164 342 l 164 101 q 164 73 167 56 q 170 40 178 32 q 186 23 200 21 q 214 19 236 19 l 236 0 l 15 0 l 15 19 q 36 19 49 22 q 62 25 69 34 q 77 42 79 59 q 82 75 82 101 l 82 272 q 82 310 81 336 q 81 363 75 378 q 70 393 56 396 q 42 398 15 389 l 6 406 l 143 460 l 164 460 l 164 366 q 191 395 212 414 q 233 432 252 442 q 270 453 286 456 q 302 460 319 460 q 339 460 357 454 q 375 449 390 437 q 405 426 416 408 q 427 390 432 366 q 457 395 478 413 q 498 431 517 441 q 535 452 553 456 q 570 460 589 460 q 616 460 638 451 q 660 442 675 423 q 690 403 699 371 q 707 340 707 294 l 707 101 q 707 76 710 60 q 713 43 721 34 q 729 25 741 22 q 754 19 775 19 l 775 0 z"},"#":{"x_min":0,"x_max":500,"ha":500,"o":"m 185 417 l 150 249 l 317 249 l 352 417 z m 349 208 l 304 -15 l 265 -15 l 309 208 l 144 208 l 97 -15 l 56 -15 l 101 208 l 18 208 l 18 249 l 108 249 l 144 417 l 18 417 l 18 456 l 153 456 l 197 678 l 237 678 l 194 456 l 358 456 l 405 678 l 445 678 l 399 456 l 483 456 l 483 417 l 393 417 l 358 249 l 483 249 l 483 208 z"},",":{"x_min":0,"x_max":250,"ha":250,"o":"m 199 -5 q 199 -36 188 -62 q 176 -87 156 -107 q 136 -127 109 -142 q 83 -157 54 -167 l 54 -145 q 72 -140 91 -129 q 110 -117 125 -101 q 140 -85 149 -64 q 159 -43 159 -19 q 159 -14 157 -7 q 155 0 148 0 q 142 0 137 -2 q 132 -4 127 -7 q 122 -10 117 -12 q 112 -15 106 -15 q 96 -15 86 -11 q 77 -8 70 -1 q 63 5 59 16 q 54 26 54 41 q 54 54 59 64 q 64 75 73 82 q 82 89 94 93 q 105 97 118 97 q 132 97 146 91 q 161 84 172 71 q 184 59 192 40 q 199 21 199 -5 z"},"n":{"x_min":0,"x_max":500,"ha":500,"o":"m 274 0 l 274 19 q 299 19 314 22 q 328 25 336 34 q 343 43 345 59 q 347 75 347 101 l 347 284 q 347 314 344 336 q 340 358 332 373 q 324 387 311 394 q 297 400 277 400 q 249 400 220 385 q 191 369 162 337 l 162 101 q 162 75 164 59 q 166 42 174 34 q 182 25 196 22 q 210 19 235 19 l 235 0 l 13 0 l 13 19 q 34 19 47 22 q 60 25 67 34 q 75 43 77 60 q 80 76 80 101 l 80 268 q 80 308 79 331 q 78 354 76 366 q 75 378 72 382 q 69 387 65 390 q 49 404 13 389 l 5 406 l 142 460 l 162 460 l 162 367 q 241 460 312 460 q 345 460 367 448 q 390 436 403 414 q 417 392 423 361 q 429 331 429 293 l 429 101 q 429 76 432 60 q 434 44 441 35 q 449 26 462 22 q 476 19 499 19 l 499 0 z"},"h":{"x_min":0,"x_max":500,"ha":500,"o":"m 274 0 l 274 19 q 296 19 310 21 q 323 24 332 32 q 340 41 343 55 q 346 69 346 92 l 346 259 q 346 281 346 306 q 346 331 340 352 q 333 373 319 387 q 304 401 274 401 q 263 401 251 399 q 239 397 226 390 q 212 383 197 371 q 182 358 164 337 l 164 92 q 164 69 166 55 q 168 41 175 32 q 183 24 197 21 q 211 19 235 19 l 235 0 l 14 0 l 14 19 q 36 19 49 22 q 62 26 70 35 q 77 43 79 57 q 82 71 82 92 l 82 564 q 82 599 75 615 q 69 631 49 631 q 42 631 33 630 q 24 628 14 624 l 6 641 l 141 695 l 164 695 l 164 368 q 183 397 202 415 q 221 433 240 443 q 258 453 276 457 q 294 460 312 460 q 340 460 360 451 q 379 442 392 427 q 405 412 413 392 q 420 372 423 350 q 427 328 427 304 q 428 281 428 259 l 428 92 q 428 70 430 56 q 433 42 440 34 q 447 25 460 22 q 473 19 496 19 l 496 0 z"},"z":{"x_min":0,"x_max":444,"ha":444,"o":"m 128 33 l 292 33 q 342 33 360 42 q 368 45 375 49 q 381 53 386 62 q 391 71 396 89 q 400 106 403 137 l 420 137 l 415 0 l 20 0 l 20 19 l 318 414 l 170 414 q 147 414 132 412 q 116 410 107 407 q 93 400 83 382 q 73 363 69 323 l 50 323 l 53 447 l 428 447 l 428 429 z"},"B":{"x_min":0,"x_max":650,"ha":650,"o":"m 612 181 q 612 164 608 146 q 604 127 595 110 q 587 92 574 76 q 562 61 545 48 q 530 36 510 27 q 490 18 464 12 q 438 6 405 3 q 372 0 329 0 l 18 0 l 18 19 l 42 19 q 83 19 101 45 q 106 53 109 71 q 112 89 112 118 l 112 545 q 112 607 98 624 q 88 634 75 639 q 61 645 42 645 l 18 645 l 18 662 l 303 662 q 362 662 405 655 q 448 647 479 634 q 510 621 530 603 q 550 585 562 566 q 573 546 578 526 q 582 505 582 485 q 582 461 574 438 q 567 416 552 397 q 537 378 515 363 q 492 348 462 339 q 501 332 529 316 q 558 301 576 281 q 595 260 604 235 q 612 209 612 181 z m 479 490 q 479 518 468 543 q 457 569 434 588 q 411 607 376 618 q 341 629 294 629 q 270 629 248 627 q 226 625 206 620 l 206 365 q 225 360 248 359 q 270 358 299 358 q 348 358 382 367 q 416 376 438 393 q 459 410 469 434 q 479 458 479 490 z m 500 173 q 500 207 486 234 q 473 262 447 282 q 420 302 382 313 q 343 324 293 324 q 262 324 241 323 q 220 322 206 319 l 206 48 q 235 42 263 38 q 291 35 319 35 q 363 35 396 45 q 430 55 453 74 q 476 92 488 118 q 500 143 500 173 z"},"K":{"x_min":0,"x_max":723,"ha":723,"o":"m 416 0 l 416 19 q 444 19 456 27 q 468 36 469 49 q 471 59 463 71 q 455 83 433 104 l 234 302 l 205 273 l 205 118 q 205 102 206 90 q 206 78 207 69 q 208 61 211 54 q 213 48 217 42 q 225 31 242 25 q 258 19 276 19 l 299 19 l 299 0 l 18 0 l 18 19 l 41 19 q 81 19 100 42 q 111 57 111 118 l 111 545 q 111 579 108 597 q 104 616 98 624 q 95 627 89 631 q 83 634 74 637 q 66 641 57 643 q 48 645 41 645 l 18 645 l 18 662 l 299 662 l 299 645 l 276 645 q 262 645 247 640 q 231 636 221 625 q 217 622 214 616 q 211 611 209 603 q 207 594 206 580 q 205 566 205 545 l 205 338 q 210 342 227 357 q 243 373 272 399 q 345 467 389 513 q 432 560 447 582 q 460 601 460 617 q 460 627 450 636 q 440 645 416 645 l 400 645 l 400 662 l 645 662 l 645 645 q 634 645 625 644 q 616 643 606 640 q 597 637 586 632 q 575 626 562 618 q 551 611 544 606 q 536 602 529 595 q 521 589 512 581 q 503 572 489 557 q 474 543 453 522 q 432 500 400 469 l 299 368 l 543 124 q 604 64 646 42 q 668 31 689 26 q 709 21 731 19 l 731 0 z"},"R":{"x_min":0,"x_max":668,"ha":668,"o":"m 500 0 l 275 310 q 262 309 252 308 q 243 308 235 308 q 228 308 220 308 q 213 308 205 310 l 205 118 q 205 54 219 41 q 238 19 275 19 l 301 19 l 301 0 l 18 0 l 18 19 l 42 19 q 85 19 102 45 q 112 61 112 118 l 112 545 q 112 606 99 624 q 89 634 75 639 q 61 645 42 645 l 18 645 l 18 662 l 258 662 q 311 662 350 658 q 390 655 415 646 q 440 638 462 624 q 484 609 500 590 q 516 570 525 546 q 534 521 534 493 q 534 462 524 435 q 515 408 494 386 q 474 364 444 348 q 413 332 372 322 l 507 132 q 529 101 548 80 q 567 59 587 46 q 606 34 628 28 q 649 21 677 19 l 677 0 z m 424 485 q 424 516 414 542 q 404 567 386 586 q 367 604 341 615 q 314 625 282 625 q 269 625 250 623 q 230 621 205 617 l 205 341 l 233 341 q 282 341 318 352 q 354 362 377 382 q 401 401 413 427 q 424 454 424 485 z"},"T":{"x_min":0,"x_max":609,"ha":609,"o":"m 565 507 q 563 525 560 538 q 557 551 553 560 q 549 570 545 576 q 540 583 534 589 q 519 605 498 614 q 477 622 444 622 l 350 622 l 350 116 q 350 84 354 65 q 357 46 364 39 q 381 19 420 19 l 444 19 l 444 0 l 163 0 l 163 19 l 187 19 q 208 19 222 24 q 236 30 246 44 q 251 52 254 69 q 256 86 256 116 l 256 622 l 177 622 q 157 622 143 621 q 129 620 119 617 q 109 615 102 611 q 94 607 87 601 q 52 574 46 507 l 24 507 l 31 662 l 581 662 l 586 507 z"},"P":{"x_min":0,"x_max":556,"ha":556,"o":"m 521 479 q 521 441 510 408 q 498 375 471 350 q 444 325 399 310 q 355 296 290 296 l 273 296 q 266 296 257 297 q 248 297 236 298 q 224 299 205 301 l 205 118 q 205 86 208 67 q 211 47 219 41 q 238 19 275 19 l 300 19 l 300 0 l 18 0 l 18 19 l 42 19 q 62 19 77 25 q 92 31 101 45 q 105 53 108 71 q 111 88 111 118 l 111 545 q 111 606 98 624 q 88 634 75 639 q 61 645 42 645 l 18 645 l 18 662 l 259 662 q 284 662 310 661 q 336 659 360 655 q 384 650 406 642 q 428 634 445 621 q 461 609 475 595 q 489 581 500 564 q 510 547 516 526 q 521 505 521 479 z m 410 469 q 410 500 401 528 q 393 556 375 577 q 357 598 331 611 q 304 624 269 624 q 257 624 241 621 q 225 618 205 614 l 205 334 q 230 330 250 329 q 271 328 285 328 q 310 328 333 338 q 355 348 372 367 q 389 385 399 411 q 409 437 410 469 z"},"|":{"x_min":0,"x_max":322,"ha":322,"o":"m 137 -248 l 137 766 l 186 766 l 186 -248 z"},"t":{"x_min":0,"x_max":278,"ha":278,"o":"m 279 82 q 271 57 258 39 q 245 21 230 9 q 215 -3 198 -9 q 182 -15 167 -15 q 151 -15 136 -10 q 120 -6 107 7 q 95 20 87 43 q 79 66 79 104 l 79 414 l 7 414 l 7 429 q 27 437 50 455 q 72 473 91 496 q 98 504 103 511 q 108 519 115 529 q 121 540 128 555 q 136 571 146 595 l 161 595 l 161 447 l 266 447 l 266 414 l 161 414 l 161 116 q 161 94 164 80 q 167 65 174 57 q 180 49 188 45 q 196 42 205 42 q 223 41 237 52 q 251 62 260 82 z"},"M":{"x_min":0,"x_max":890,"ha":890,"o":"m 587 0 l 587 19 l 610 19 q 633 19 647 24 q 661 30 670 44 q 681 59 681 116 l 681 557 l 425 0 l 409 0 l 153 557 l 153 116 q 153 53 167 39 q 183 19 224 19 l 247 19 l 247 0 l 18 0 l 18 19 l 41 19 q 62 19 76 24 q 90 30 100 44 q 104 52 107 69 q 109 86 109 116 l 109 547 q 109 579 105 598 q 102 617 88 626 q 78 635 62 640 q 47 645 18 645 l 18 662 l 204 662 l 444 144 l 681 662 l 869 662 l 869 645 l 846 645 q 804 645 785 620 q 780 611 778 593 q 775 576 775 547 l 775 116 q 775 54 789 39 q 806 19 846 19 l 869 19 l 869 0 z"},"g":{"x_min":0,"x_max":500,"ha":500,"o":"m 482 408 q 482 405 481 399 q 480 392 478 389 q 475 387 471 386 q 467 385 462 385 q 457 384 450 385 l 393 385 q 406 368 413 345 q 419 323 419 295 q 420 265 408 237 q 396 210 374 189 q 351 168 318 156 q 286 144 244 144 q 227 144 209 146 q 192 149 175 154 q 166 147 157 137 q 148 127 143 117 q 138 107 138 98 q 139 88 146 82 q 149 79 153 77 q 157 75 165 73 q 172 71 184 70 q 195 69 214 68 q 232 67 258 66 q 284 65 320 64 q 329 64 344 64 q 359 63 376 60 q 394 57 412 50 q 429 43 444 32 q 458 21 468 2 q 477 -16 477 -42 q 477 -75 458 -107 q 438 -138 405 -163 q 371 -188 325 -202 q 280 -217 226 -217 q 189 -217 154 -208 q 118 -200 91 -187 q 63 -174 47 -157 q 30 -140 30 -123 q 30 -113 34 -102 q 38 -91 48 -76 q 58 -62 75 -42 q 93 -22 119 4 q 97 18 85 29 q 73 41 73 58 q 73 66 76 76 q 79 85 87 98 q 95 110 111 126 q 126 142 151 164 q 130 173 114 188 q 98 203 87 220 q 77 238 72 259 q 66 279 66 299 q 66 331 79 360 q 91 389 114 411 q 136 433 169 447 q 203 460 244 460 q 273 460 293 455 q 314 449 331 443 q 349 437 366 432 q 384 426 407 426 q 422 426 432 427 q 442 428 449 428 q 457 429 462 429 q 469 429 476 427 q 482 426 482 408 z m 333 283 q 333 317 326 346 q 320 374 307 394 q 294 415 277 426 q 259 437 236 437 q 218 437 203 430 q 188 424 176 409 q 165 395 158 373 q 151 351 151 320 q 151 287 158 259 q 165 231 177 211 q 189 191 208 180 q 226 168 249 168 q 267 168 282 175 q 297 182 309 196 q 320 209 327 231 q 333 252 333 283 z m 441 -60 q 441 -48 436 -39 q 431 -31 417 -25 q 403 -20 379 -16 q 354 -13 316 -11 q 261 -8 218 -6 q 176 -4 146 0 q 125 -24 113 -44 q 100 -63 100 -85 q 100 -101 112 -114 q 125 -127 147 -136 q 169 -146 200 -151 q 231 -157 269 -157 q 313 -157 345 -148 q 377 -140 399 -126 q 420 -112 430 -94 q 441 -77 441 -60 z"},"j":{"x_min":0,"x_max":278,"ha":278,"o":"m 195 600 q 195 589 192 580 q 188 571 181 564 q 174 558 165 553 q 156 549 145 549 q 124 549 109 563 q 95 578 95 600 q 95 610 99 619 q 104 628 110 635 q 117 642 126 646 q 135 649 145 649 q 154 649 163 646 q 172 642 179 635 q 187 628 191 619 q 195 610 195 600 z m 188 9 q 188 -49 174 -91 q 161 -134 137 -162 q 114 -189 81 -203 q 49 -217 11 -217 q -13 -217 -29 -212 q -46 -207 -56 -200 q -66 -192 -72 -184 q -77 -175 -77 -167 q -77 -149 -65 -137 q -53 -125 -37 -125 q -20 -125 -7 -133 q 5 -140 21 -156 q 43 -177 61 -177 q 78 -177 87 -165 q 97 -153 101 -134 q 105 -115 105 -92 q 106 -69 106 -46 l 106 272 q 106 304 105 325 q 104 346 103 360 q 101 373 98 380 q 96 387 92 390 q 82 397 70 396 q 58 396 37 389 l 31 406 l 167 460 l 188 460 z"},"i":{"x_min":0,"x_max":278,"ha":278,"o":"m 196 600 q 196 579 182 564 q 168 549 147 549 q 125 549 111 563 q 97 578 97 600 q 97 610 101 619 q 105 628 112 635 q 119 641 128 645 q 137 648 147 648 q 157 648 166 645 q 175 641 182 634 q 188 627 192 619 q 196 610 196 600 z m 38 0 l 38 19 q 59 19 72 21 q 85 24 93 32 q 101 41 103 55 q 106 69 106 92 l 106 331 q 106 363 99 380 q 92 396 72 396 q 65 396 57 395 q 49 393 38 389 l 31 406 l 167 460 l 188 460 l 188 92 q 188 69 190 55 q 193 41 201 32 q 208 24 222 21 q 235 19 256 19 l 256 0 z"},"y":{"x_min":0,"x_max":500,"ha":500,"o":"m 495 429 q 484 429 476 426 q 467 424 460 417 q 452 410 445 397 q 438 384 428 362 l 246 -84 q 233 -116 216 -141 q 199 -166 179 -182 q 159 -199 138 -208 q 116 -217 95 -217 q 81 -217 68 -212 q 56 -208 47 -200 q 39 -193 34 -183 q 29 -172 29 -161 q 29 -141 42 -129 q 54 -117 79 -117 q 87 -117 97 -119 q 108 -122 118 -125 q 128 -128 136 -131 q 144 -134 147 -134 q 155 -134 163 -130 q 171 -126 180 -118 q 188 -109 197 -95 q 206 -81 215 -60 l 246 19 l 85 355 q 81 364 75 376 q 69 388 60 399 q 50 411 37 419 q 24 428 6 429 l 6 447 l 215 447 l 215 429 l 204 429 q 186 429 173 421 q 160 413 160 396 q 160 386 164 374 q 168 361 176 344 l 285 119 l 385 366 q 392 379 394 395 q 396 410 391 418 q 389 420 387 422 q 385 424 381 426 q 376 427 369 428 q 361 429 349 429 l 349 447 l 495 447 z"},"@":{"x_min":0,"x_max":922,"ha":922,"o":"m 550 251 q 569 297 575 334 q 581 371 575 396 q 570 421 555 435 q 540 448 517 448 q 493 448 469 431 q 445 415 423 388 q 401 361 382 327 q 363 293 349 260 q 335 226 327 195 q 319 165 319 144 q 319 126 325 113 q 330 100 338 91 q 347 83 357 78 q 367 74 375 74 q 399 74 425 90 q 451 105 475 131 q 498 156 518 188 q 538 219 550 251 z m 897 83 q 891 61 875 30 q 860 -1 836 -35 q 812 -68 777 -101 q 743 -133 698 -159 q 653 -185 597 -201 q 541 -217 474 -217 q 402 -217 343 -199 q 284 -181 237 -149 q 189 -118 154 -76 q 118 -34 94 14 q 71 62 59 115 q 47 167 47 218 q 47 296 66 362 q 86 428 119 481 q 153 534 198 574 q 243 614 295 641 q 346 668 401 681 q 456 695 509 695 q 581 695 644 673 q 708 652 755 609 q 803 567 831 504 q 858 442 858 360 q 858 288 838 225 q 817 162 781 115 q 744 69 695 42 q 646 16 589 16 q 557 16 541 26 q 525 37 519 55 q 513 74 515 99 q 517 125 522 154 q 504 132 483 108 q 461 83 437 63 q 412 42 385 29 q 358 16 330 16 q 313 16 297 23 q 281 31 269 45 q 257 60 250 81 q 243 102 243 128 q 243 168 255 209 q 267 250 288 288 q 308 326 335 360 q 362 393 392 418 q 422 443 453 457 q 483 472 511 472 q 534 472 550 464 q 565 457 575 446 q 584 436 589 424 q 594 412 596 403 l 611 457 l 687 469 l 631 273 q 623 246 615 217 q 607 188 600 163 q 593 138 589 118 q 585 98 585 86 q 585 83 587 77 q 588 71 593 65 q 597 59 604 54 q 611 50 623 50 q 642 50 665 60 q 688 69 710 88 q 733 107 755 134 q 776 162 792 197 q 809 232 819 276 q 829 319 829 369 q 829 439 804 495 q 779 551 736 590 q 692 628 635 649 q 577 669 512 669 q 456 669 403 654 q 350 639 303 610 q 257 581 218 540 q 180 499 152 447 q 125 395 109 334 q 94 272 94 204 q 94 155 104 107 q 114 59 135 16 q 156 -28 188 -65 q 219 -102 262 -128 q 304 -155 358 -170 q 412 -186 477 -186 q 538 -186 589 -172 q 639 -158 679 -135 q 720 -113 751 -84 q 782 -55 805 -25 q 828 5 844 33 q 859 62 869 83 z"},".":{"x_min":0,"x_max":250,"ha":250,"o":"m 179 42 q 179 30 175 20 q 171 10 164 2 q 157 -5 147 -10 q 137 -15 125 -15 q 112 -15 103 -10 q 93 -5 86 2 q 79 10 75 20 q 71 30 71 42 q 71 65 86 80 q 102 95 125 95 q 136 95 146 91 q 156 87 163 80 q 170 73 175 63 q 179 53 179 42 z"},"p":{"x_min":0,"x_max":500,"ha":500,"o":"m 467 241 q 467 188 452 142 q 437 95 410 60 q 383 25 345 5 q 308 -15 262 -15 q 251 -15 239 -14 q 227 -13 213 -9 q 200 -4 186 4 q 171 12 155 26 l 155 -109 q 155 -136 157 -152 q 159 -169 166 -178 q 174 -188 189 -192 q 205 -195 231 -196 l 231 -215 l -6 -215 l -6 -196 q 21 -195 37 -192 q 53 -188 61 -179 q 68 -169 70 -152 q 72 -135 72 -107 l 72 316 q 72 334 72 346 q 72 358 70 366 q 69 375 65 379 q 62 384 56 389 q 48 394 36 395 q 24 396 3 387 l -3 403 l 137 459 l 155 459 l 155 354 q 172 384 189 404 q 207 424 224 437 q 242 449 260 455 q 279 460 299 460 q 336 460 367 443 q 398 426 420 397 q 442 367 455 327 q 467 287 467 241 z m 389 194 q 389 249 378 288 q 368 327 351 352 q 333 376 310 388 q 286 400 260 400 q 245 400 233 395 q 220 389 208 379 q 196 369 183 355 q 170 342 155 325 l 155 158 q 155 105 160 86 q 163 74 171 61 q 179 48 191 38 q 204 28 221 22 q 238 16 260 16 q 289 16 312 28 q 336 41 353 63 q 370 86 379 120 q 389 153 389 194 z"},"X":{"x_min":0,"x_max":723,"ha":723,"o":"m 426 0 l 426 19 q 451 19 465 22 q 478 26 485 37 q 490 44 492 50 q 494 57 491 65 q 489 74 481 87 q 474 100 460 121 l 348 292 l 208 114 q 199 101 193 93 q 187 84 184 78 q 181 72 180 67 q 179 62 179 56 q 179 48 182 42 q 185 35 192 30 q 199 25 211 22 q 223 19 243 19 l 243 0 l 6 0 l 6 19 q 28 19 50 28 q 72 38 94 53 q 115 68 134 87 q 153 107 170 128 l 327 326 l 196 518 q 171 556 149 580 q 128 604 108 617 q 87 631 66 637 q 45 643 21 645 l 21 662 l 327 662 l 327 645 q 289 643 273 631 q 266 625 262 619 q 258 613 259 604 q 259 595 265 583 q 271 572 282 555 l 384 402 l 501 552 q 522 578 529 595 q 536 613 526 625 q 523 630 519 634 q 515 637 508 639 q 500 642 489 643 q 478 644 460 645 l 460 662 l 696 662 l 696 645 q 669 643 649 636 q 630 629 613 615 q 596 602 579 582 q 562 562 541 535 l 408 368 l 550 155 q 570 126 586 104 q 601 83 614 68 q 627 53 638 44 q 649 35 661 29 q 672 24 684 22 q 696 20 710 19 l 710 0 z"},"*":{"x_min":0,"x_max":500,"ha":500,"o":"m 430 574 q 430 560 421 549 q 413 539 398 531 q 384 523 367 518 q 349 512 332 508 q 314 503 298 500 q 283 496 272 492 q 283 487 299 483 q 315 479 332 474 q 350 470 367 464 q 384 458 398 450 q 412 443 421 433 q 429 423 429 410 q 429 394 419 384 q 408 375 393 375 q 377 375 359 386 q 341 398 324 415 q 306 431 290 448 q 274 465 261 475 q 261 457 265 440 q 270 423 276 407 q 281 391 286 375 q 291 358 291 342 q 291 332 288 323 q 286 313 280 306 q 275 299 267 294 q 259 290 248 290 q 239 290 232 294 q 225 299 220 307 q 215 314 213 323 q 211 332 211 340 q 211 355 215 373 q 218 390 223 408 q 228 425 233 442 q 239 459 243 476 q 229 466 212 448 q 195 431 177 415 q 160 398 142 386 q 125 374 111 374 q 104 374 96 376 q 89 378 84 383 q 78 388 75 394 q 71 400 71 408 q 71 421 80 432 q 89 442 104 451 q 118 459 135 465 q 153 471 171 476 q 189 481 205 485 q 221 489 231 492 q 221 498 206 502 q 190 506 172 510 q 154 515 136 520 q 118 525 104 532 q 89 540 80 550 q 71 560 71 575 q 71 590 82 600 q 92 610 107 610 q 124 610 142 598 q 160 586 178 570 q 196 553 212 536 q 229 519 242 509 q 240 524 235 543 q 230 562 225 580 q 219 599 215 615 q 211 632 211 643 q 211 652 213 662 q 216 671 221 678 q 227 686 234 690 q 242 695 253 695 q 263 695 270 690 q 277 686 281 678 q 286 671 288 662 q 291 653 291 645 q 291 629 287 612 q 283 595 279 577 q 274 560 269 543 q 264 525 261 509 q 275 519 292 536 q 309 553 326 569 q 343 585 360 597 q 377 609 392 609 q 399 609 406 606 q 413 604 418 599 q 423 594 427 588 q 430 581 430 574 z"},"Y":{"x_min":0,"x_max":723,"ha":723,"o":"m 696 645 q 690 645 680 642 q 670 640 659 635 q 648 629 636 621 q 625 613 614 602 q 604 590 592 573 q 580 556 565 532 l 404 281 l 404 116 q 404 53 418 39 q 436 19 478 19 l 499 19 l 499 0 l 218 0 l 218 19 l 241 19 q 262 19 276 24 q 290 30 300 44 q 305 52 307 69 q 310 86 310 116 l 310 272 l 129 549 q 113 573 101 590 q 90 607 76 618 q 63 627 46 636 q 28 645 8 645 l 8 662 l 293 662 l 293 645 l 278 645 q 271 645 261 643 q 250 641 241 636 q 231 632 224 623 q 217 615 217 602 q 217 593 224 577 q 231 561 246 537 l 384 324 l 515 528 q 526 545 533 558 q 540 572 543 583 q 546 594 545 603 q 543 613 536 622 q 530 631 518 638 q 505 645 478 645 l 478 662 l 708 662 l 708 645 z"},"c":{"x_min":0,"x_max":444,"ha":444,"o":"m 411 170 q 404 129 387 95 q 369 62 344 37 q 319 13 288 -1 q 257 -15 224 -15 q 185 -15 150 2 q 115 19 89 50 q 63 81 49 125 q 34 169 34 223 q 34 276 51 320 q 68 364 97 395 q 126 426 165 443 q 204 460 247 460 q 314 460 356 425 q 377 408 388 390 q 399 372 399 354 q 399 336 388 324 q 376 312 354 312 q 346 312 337 313 q 329 315 321 321 q 312 326 307 338 q 301 349 299 369 q 297 396 281 412 q 265 428 231 428 q 204 428 182 416 q 160 403 145 382 q 129 360 122 330 q 114 300 114 266 q 114 226 123 189 q 133 153 151 125 q 170 97 197 80 q 224 63 259 63 q 279 63 298 68 q 317 73 334 85 q 351 98 367 120 q 383 143 397 177 z"},"!":{"x_min":0,"x_max":333,"ha":333,"o":"m 220 42 q 220 30 216 20 q 211 10 204 2 q 197 -6 187 -10 q 177 -15 167 -15 q 158 -15 148 -11 q 139 -8 131 -1 q 123 5 117 16 q 112 27 112 42 q 112 55 117 64 q 122 74 130 81 q 138 87 147 91 q 157 94 167 94 q 176 94 186 91 q 195 87 203 80 q 210 73 215 63 q 220 54 220 42 z m 222 604 q 222 599 222 590 q 222 582 220 572 l 176 175 l 157 175 l 115 572 q 112 589 112 596 q 111 604 111 609 q 111 642 127 660 q 144 678 167 678 q 177 678 186 674 q 196 670 204 661 q 212 652 217 638 q 222 625 222 604 z"},"/":{"x_min":0,"x_max":278,"ha":278,"o":"m 46 -15 l 6 -15 l 247 695 l 285 695 z"},"[":{"x_min":0,"x_max":333,"ha":333,"o":"m 81 -198 l 81 678 l 296 678 l 296 640 l 154 640 l 154 -160 l 296 -160 l 296 -198 z"},"6":{"x_min":0,"x_max":500,"ha":500,"o":"m 462 223 q 462 179 447 137 q 433 95 405 62 q 377 29 339 9 q 300 -12 251 -12 q 206 -12 167 10 q 129 32 102 69 q 74 106 59 155 q 43 205 43 260 q 43 314 55 361 q 67 408 87 447 q 106 486 131 517 q 155 548 180 572 q 211 601 243 621 q 275 642 306 654 q 337 666 366 671 q 396 677 420 677 l 448 677 l 448 658 q 391 656 345 633 q 299 610 262 574 q 249 561 234 542 q 219 524 204 499 q 189 474 176 441 q 163 409 153 369 q 223 418 294 418 q 310 418 328 414 q 346 410 365 400 q 383 391 401 375 q 418 360 432 339 q 445 317 454 288 q 462 260 462 223 z m 375 170 q 375 208 367 246 q 360 283 344 312 q 329 341 305 359 q 281 376 247 376 q 232 376 219 372 q 205 368 192 362 q 179 355 167 348 q 156 341 145 334 q 141 301 138 275 q 136 249 136 228 q 136 206 140 181 q 144 156 151 132 q 159 108 170 87 q 181 65 195 49 q 209 33 227 24 q 245 15 266 16 q 287 17 307 27 q 327 37 342 56 q 357 76 366 104 q 375 133 375 170 z"},"r":{"x_min":0,"x_max":343,"ha":343,"o":"m 341 406 q 341 397 337 389 q 334 381 328 375 q 322 369 314 365 q 306 361 296 361 q 284 361 275 366 q 265 372 257 378 q 250 385 242 390 q 235 396 227 396 q 215 396 198 375 q 180 355 162 319 l 162 104 q 162 83 165 67 q 168 51 177 40 q 186 29 201 24 q 217 19 241 19 l 241 0 l 8 0 l 8 19 q 29 19 43 21 q 57 23 65 31 q 73 40 77 56 q 80 73 80 101 l 80 274 q 80 310 79 330 q 79 351 77 363 q 75 375 72 380 q 69 385 65 390 q 55 396 42 396 q 29 397 8 389 l 4 406 l 143 460 l 162 460 l 162 360 q 217 460 277 460 q 291 460 302 456 q 314 452 323 445 q 331 438 336 428 q 341 418 341 406 z"},"2":{"x_min":0,"x_max":500,"ha":500,"o":"m 412 0 l 22 0 l 22 19 q 108 97 169 161 q 229 224 265 275 q 335 376 335 457 q 335 500 320 527 q 306 555 285 572 q 264 588 242 595 q 220 602 204 602 q 169 602 144 589 q 119 577 101 560 q 84 542 74 523 q 63 503 59 490 l 42 490 q 43 504 48 524 q 52 544 61 565 q 70 585 83 605 q 97 625 117 641 q 138 657 165 667 q 193 677 229 677 q 264 677 298 665 q 333 653 359 630 q 386 608 402 575 q 418 543 418 502 q 418 463 404 425 q 390 387 368 352 q 347 316 323 286 q 298 256 277 234 q 216 167 179 128 q 141 88 126 74 l 299 74 q 337 74 359 76 q 382 79 396 84 q 411 90 420 101 q 430 111 441 127 l 459 127 z"},"{":{"x_min":0,"x_max":479,"ha":479,"o":"m 378 -216 q 343 -212 310 -196 q 277 -180 252 -155 q 227 -130 212 -97 q 196 -64 196 -28 q 196 -8 200 11 q 203 31 208 50 q 212 68 215 86 q 219 104 219 120 q 219 144 208 162 q 197 181 181 195 q 164 208 144 217 q 125 225 106 227 l 106 252 q 124 254 144 262 q 164 271 180 284 q 197 297 208 315 q 219 334 219 357 q 219 374 215 393 q 212 412 208 432 q 203 452 200 473 q 196 494 196 514 q 196 549 212 581 q 228 612 253 636 q 279 660 312 676 q 344 691 378 695 l 378 678 q 354 671 334 660 q 314 649 300 634 q 285 618 277 596 q 269 575 269 548 q 269 531 272 514 q 276 498 280 481 q 284 464 287 448 q 291 431 291 413 q 291 380 281 353 q 271 326 253 304 q 235 283 210 266 q 186 250 157 240 q 186 229 211 213 q 235 197 253 175 q 271 153 281 125 q 291 97 291 64 q 291 47 287 31 q 284 14 280 -2 q 276 -19 272 -35 q 269 -52 269 -69 q 269 -96 277 -117 q 285 -138 300 -154 q 314 -170 334 -181 q 354 -192 378 -198 z"},"9":{"x_min":0,"x_max":500,"ha":500,"o":"m 457 403 q 457 240 345 117 q 339 109 326 97 q 314 84 296 69 q 279 55 256 40 q 233 25 206 13 q 179 0 148 -7 q 116 -15 81 -15 l 53 -15 l 53 4 q 66 4 87 7 q 108 10 133 18 q 158 26 184 42 q 210 57 234 82 q 271 122 301 173 q 331 224 347 292 q 310 266 275 254 q 241 242 208 242 q 167 242 136 259 q 105 275 84 303 q 62 331 52 366 q 41 401 41 439 q 41 491 57 535 q 74 579 103 610 q 131 642 168 659 q 206 677 246 677 q 280 677 309 665 q 337 654 361 634 q 384 614 402 588 q 420 561 432 531 q 444 500 451 468 q 457 435 457 403 z m 365 428 q 365 481 353 522 q 340 563 322 591 q 303 618 280 632 q 257 646 235 645 q 213 644 193 634 q 174 624 159 604 q 144 585 135 556 q 127 528 127 490 q 127 444 136 407 q 145 369 160 342 q 176 315 198 301 q 221 286 248 286 q 263 286 279 290 q 296 293 311 300 q 327 306 339 313 q 351 321 355 327 q 359 359 362 384 q 365 410 365 428 z"}," ":{"x_min":0,"x_max":289,"ha":289,"o":""},"I":{"x_min":0,"x_max":333,"ha":333,"o":"m 25 0 l 25 19 l 49 19 q 69 19 83 24 q 98 30 107 42 q 119 56 119 118 l 119 545 q 119 562 119 574 q 119 586 118 595 q 117 604 115 609 q 112 615 108 620 q 99 631 83 638 q 66 645 49 645 l 25 645 l 25 662 l 309 662 l 309 645 l 285 645 q 246 645 226 621 q 221 612 217 594 q 214 575 214 545 l 214 118 q 214 85 217 68 q 220 50 225 42 q 228 38 234 33 q 240 29 249 26 q 257 23 267 21 q 276 19 285 19 l 309 19 l 309 0 z"},"H":{"x_min":0,"x_max":723,"ha":723,"o":"m 418 0 l 418 19 l 443 19 q 483 19 501 42 q 507 50 510 68 q 514 87 514 118 l 514 319 l 205 319 l 205 118 q 205 84 208 67 q 211 50 218 42 q 226 31 243 25 q 260 19 277 19 l 301 19 l 301 0 l 18 0 l 18 19 l 42 19 q 81 19 100 42 q 112 58 112 118 l 112 545 q 112 563 111 575 q 110 588 109 597 q 107 605 105 612 q 102 618 98 623 q 95 627 88 631 q 82 635 73 638 q 65 641 57 643 q 49 645 42 645 l 18 645 l 18 662 l 301 662 l 301 645 l 277 645 q 261 645 246 640 q 230 635 220 624 q 217 620 214 614 q 211 608 209 599 q 207 590 206 577 q 205 564 205 545 l 205 355 l 514 355 l 514 545 q 514 582 510 599 q 506 617 500 624 q 490 633 475 639 q 459 645 443 645 l 418 645 l 418 662 l 703 662 l 703 645 l 679 645 q 664 645 648 639 q 632 634 622 624 q 616 618 613 612 q 610 606 609 598 q 607 590 607 577 q 607 565 607 545 l 607 118 q 607 102 607 90 q 607 78 609 69 q 610 61 612 54 q 615 48 619 42 q 627 30 645 24 q 662 19 679 19 l 703 19 l 703 0 z"},"4":{"x_min":0,"x_max":500,"ha":500,"o":"m 377 175 l 377 0 l 296 0 l 296 175 l 16 175 l 16 237 l 323 677 l 377 677 l 377 244 l 465 244 l 465 175 z m 296 574 l 63 244 l 296 244 z"},"~":{"x_min":0,"x_max":544,"ha":544,"o":""},"D":{"x_min":0,"x_max":723,"ha":723,"o":"m 684 335 q 684 265 662 204 q 640 143 595 98 q 549 52 479 26 q 410 0 314 0 l 18 0 l 18 19 l 42 19 q 63 19 78 25 q 93 31 101 45 q 106 53 109 71 q 112 89 112 118 l 112 545 q 112 606 99 624 q 89 634 75 639 q 61 645 42 645 l 18 645 l 18 662 l 287 662 q 342 662 386 658 q 430 653 466 644 q 501 634 530 619 q 559 604 582 584 q 605 563 624 537 q 643 510 656 478 q 669 446 677 410 q 684 374 684 335 z m 574 330 q 574 399 554 454 q 534 508 498 546 q 463 584 414 605 q 365 625 306 625 q 284 625 260 622 q 235 619 206 611 l 206 48 q 237 42 263 38 q 289 34 310 34 q 366 33 414 53 q 462 74 498 112 q 533 150 553 206 q 574 261 574 330 z"},"^":{"x_min":0,"x_max":314,"ha":314,"o":""},"0":{"x_min":0,"x_max":500,"ha":500,"o":"m 465 337 q 465 292 458 249 q 452 206 440 167 q 427 128 409 96 q 391 63 366 39 q 342 15 312 2 q 283 -12 247 -12 q 215 -12 187 1 q 158 15 135 38 q 111 61 93 93 q 74 125 62 163 q 49 201 42 242 q 36 284 36 327 q 36 406 53 471 q 71 535 101 581 q 131 627 171 652 q 210 677 252 677 q 294 677 333 653 q 371 629 400 585 q 430 542 447 479 q 465 416 465 337 z m 369 359 q 369 425 362 478 q 354 531 339 568 q 324 605 302 625 q 280 645 251 645 q 238 645 223 639 q 209 633 196 618 q 183 604 171 580 q 159 556 151 519 q 142 482 137 432 q 132 382 132 316 q 132 242 140 187 q 148 131 164 94 q 179 56 201 38 q 223 19 249 19 q 275 19 297 36 q 319 53 335 93 q 352 132 360 198 q 369 263 369 359 z"},"F":{"x_min":0,"x_max":556,"ha":556,"o":"m 499 518 q 490 548 479 569 q 469 590 452 603 q 436 615 412 621 q 388 626 352 626 l 205 626 l 205 367 l 325 367 q 347 367 362 371 q 376 375 386 386 q 396 396 403 413 q 409 431 412 456 l 430 456 l 430 232 l 412 232 q 412 255 408 273 q 404 291 394 302 q 384 313 367 319 q 350 325 325 325 l 205 325 l 205 118 q 205 85 207 68 q 208 51 216 43 q 226 31 242 25 q 259 19 276 19 l 300 19 l 300 0 l 17 0 l 17 19 l 41 19 q 80 19 99 42 q 111 58 111 118 l 111 545 q 111 563 110 576 q 109 589 108 598 q 106 607 103 613 q 101 619 97 623 q 87 633 72 639 q 56 645 41 645 l 17 645 l 17 662 l 509 662 l 516 518 z"},"`":{"x_min":0,"x_max":343,"ha":343,"o":""},"k":{"x_min":0,"x_max":500,"ha":500,"o":"m 289 0 l 289 19 q 303 19 310 21 q 316 23 319 30 q 320 34 320 38 q 320 42 319 47 q 317 52 313 58 q 309 65 301 74 l 165 247 l 165 101 q 165 85 165 74 q 166 63 167 56 q 168 48 170 43 q 172 39 175 35 q 180 30 184 27 q 188 23 194 21 q 201 20 210 19 q 220 19 236 19 l 236 0 l 6 0 l 6 19 q 30 19 45 21 q 60 24 68 33 q 75 40 78 56 q 81 71 81 98 l 81 505 q 81 544 81 566 q 80 588 79 600 q 77 612 74 616 q 72 621 67 625 q 64 627 61 629 q 57 631 51 631 q 45 632 37 630 q 28 628 17 624 l 6 641 l 142 695 l 165 695 l 165 258 l 277 354 q 293 367 302 375 q 312 384 316 390 q 321 396 322 399 q 323 403 323 407 q 323 417 315 424 q 308 431 289 432 l 289 447 l 483 447 l 483 432 q 443 431 417 419 q 404 414 389 404 q 375 395 358 379 l 241 274 l 358 128 q 377 104 390 88 q 403 72 412 62 q 421 52 427 46 q 434 41 439 37 q 444 33 450 30 q 456 27 464 22 q 469 20 479 19 q 490 19 506 19 l 506 0 z"},"u":{"x_min":0,"x_max":500,"ha":500,"o":"m 366 -15 l 344 -15 l 344 81 q 315 51 294 33 q 273 14 256 4 q 238 -7 223 -11 q 208 -15 192 -15 q 166 -15 147 -7 q 128 1 115 15 q 103 28 95 46 q 87 63 83 83 q 79 102 77 122 q 76 142 76 160 l 76 360 q 76 382 72 396 q 68 409 59 417 q 50 424 36 427 q 21 429 0 429 l 0 447 l 158 447 l 158 148 q 158 129 160 111 q 163 92 171 78 q 179 63 193 55 q 208 46 232 46 q 242 46 253 49 q 265 52 279 59 q 292 66 309 79 q 325 91 344 109 l 344 364 q 344 384 340 397 q 335 409 327 416 q 318 423 304 426 q 291 429 271 429 l 271 447 l 425 447 l 425 119 q 425 99 427 86 q 429 73 432 65 q 436 57 442 54 q 448 51 456 51 q 462 51 473 53 q 484 55 495 59 l 501 42 z"},"]":{"x_min":0,"x_max":333,"ha":333,"o":"m 38 -199 l 38 -160 l 179 -160 l 179 640 l 38 640 l 38 678 l 252 678 l 252 -199 z"},"U":{"x_min":0,"x_max":723,"ha":723,"o":"m 687 645 q 667 645 653 636 q 639 628 627 611 q 622 604 619 587 q 617 570 617 542 l 617 272 q 617 238 615 207 q 612 176 606 149 q 599 122 588 99 q 577 76 559 58 q 541 39 521 25 q 502 11 479 2 q 455 -7 426 -11 q 397 -16 361 -16 q 293 -16 247 0 q 202 15 173 39 q 144 64 129 96 q 114 127 108 161 q 102 194 102 227 q 101 260 101 286 l 101 545 q 101 576 97 596 q 93 616 84 625 q 77 636 63 640 q 50 645 30 645 l 15 645 l 15 662 l 282 662 l 282 645 l 257 645 q 237 645 227 638 q 216 632 208 619 q 202 609 199 591 q 195 573 195 545 l 195 256 q 195 235 196 209 q 197 184 202 158 q 208 133 218 109 q 229 85 248 66 q 267 48 296 37 q 326 26 368 26 q 397 26 423 32 q 448 38 468 47 q 488 57 503 67 q 518 77 526 85 q 539 97 547 114 q 556 130 561 148 q 566 167 568 186 q 571 205 572 222 q 573 239 573 253 l 573 545 q 573 576 570 596 q 566 615 559 624 q 540 645 502 645 l 478 645 l 478 662 l 712 662 l 712 645 z"},"o":{"x_min":0,"x_max":500,"ha":500,"o":"m 466 232 q 466 203 460 174 q 454 144 441 117 q 429 89 411 65 q 392 42 368 24 q 343 6 312 -4 q 282 -15 245 -15 q 198 -15 159 4 q 121 23 93 56 q 64 88 49 130 q 34 173 34 219 q 34 265 49 308 q 63 351 92 385 q 120 418 160 439 q 200 460 250 460 q 298 460 338 442 q 377 425 406 394 q 435 363 450 322 q 466 280 466 232 z m 375 194 q 375 244 365 287 q 355 330 337 362 q 319 393 293 411 q 267 429 235 429 q 216 429 196 421 q 176 413 160 393 q 144 374 134 341 q 124 309 124 260 q 124 212 134 168 q 144 125 163 92 q 181 60 207 40 q 233 21 266 21 q 290 21 310 30 q 330 39 344 60 q 358 80 366 113 q 375 146 375 194 z"},"N":{"x_min":0,"x_max":723,"ha":723,"o":"m 685 645 q 664 645 649 638 q 634 632 625 620 q 615 603 615 547 l 615 -11 l 598 -11 l 160 522 l 160 116 q 160 55 173 39 q 191 19 231 19 l 254 19 l 254 0 l 23 0 l 23 19 l 46 19 q 68 19 83 24 q 98 30 106 44 q 112 52 115 69 q 118 86 118 116 l 118 576 q 113 581 106 593 q 99 604 86 615 q 74 627 54 636 q 35 645 6 645 l 6 662 l 167 662 l 572 166 l 572 547 q 572 610 558 624 q 540 645 500 645 l 479 645 l 479 662 l 708 662 l 708 645 z"},"+":{"x_min":0,"x_max":962,"ha":962,"o":"m 511 259 l 511 0 l 452 0 l 452 259 l 193 259 l 193 319 l 452 319 l 452 578 l 511 578 l 511 319 l 770 319 l 770 259 z"},"G":{"x_min":0,"x_max":723,"ha":723,"o":"m 697 344 q 677 344 664 337 q 651 331 645 318 q 639 309 637 291 q 634 273 634 246 l 634 44 q 579 12 521 -2 q 464 -16 401 -16 q 315 -16 247 10 q 179 37 132 82 q 84 127 60 189 q 35 250 35 321 q 35 362 45 404 q 55 446 75 486 q 95 525 124 560 q 154 595 193 621 q 232 647 280 663 q 329 678 386 678 q 427 678 458 671 q 489 665 512 656 q 534 648 549 642 q 563 635 573 635 q 576 635 579 637 q 583 639 586 644 q 590 648 593 656 q 595 665 597 678 l 615 678 l 631 469 l 615 469 q 599 516 577 549 q 555 583 527 604 q 499 625 466 634 q 433 644 396 644 q 335 644 289 621 q 243 598 211 557 q 180 517 164 462 q 147 407 147 343 q 146 295 155 253 q 164 210 180 175 q 196 139 219 110 q 243 81 271 60 q 299 40 333 29 q 366 19 402 19 q 438 19 472 27 q 506 35 539 55 l 539 246 q 539 277 536 296 q 532 315 523 325 q 513 335 496 339 q 479 343 453 344 l 453 361 l 708 361 l 708 344 z"},"q":{"x_min":0,"x_max":500,"ha":500,"o":"m 274 -215 l 274 -196 q 296 -196 310 -194 q 324 -192 332 -184 q 340 -175 344 -159 q 347 -144 347 -116 l 347 78 q 326 52 307 34 q 288 17 271 6 q 253 -5 236 -10 q 219 -15 200 -15 q 169 -15 140 0 q 110 15 86 43 q 62 71 47 112 q 33 152 33 204 q 33 260 50 307 q 68 354 99 388 q 130 422 173 441 q 215 460 264 460 q 292 460 315 453 q 339 447 356 429 q 371 437 385 444 q 399 451 412 460 l 429 460 l 429 -116 q 429 -141 432 -157 q 435 -173 443 -182 q 451 -190 466 -193 q 480 -196 502 -196 l 502 -215 z m 347 319 q 347 343 341 363 q 335 382 323 396 q 311 411 292 418 q 273 426 248 426 q 221 426 197 415 q 173 403 155 380 q 137 357 126 322 q 116 287 116 240 q 116 193 127 159 q 138 124 156 101 q 175 78 200 67 q 225 55 251 55 q 267 55 280 59 q 292 62 304 69 q 315 75 325 85 q 336 95 347 107 z"},"d":{"x_min":0,"x_max":500,"ha":500,"o":"m 369 -15 l 347 -15 l 347 50 q 317 19 287 2 q 256 -15 217 -15 q 180 -15 146 2 q 113 19 88 48 q 62 77 48 117 q 33 158 33 205 q 33 234 39 264 q 45 294 58 323 q 71 351 89 376 q 108 401 132 420 q 156 439 186 450 q 215 461 250 461 q 279 461 303 452 q 328 443 347 423 l 347 506 q 347 543 346 565 q 346 586 344 598 q 342 610 339 615 q 336 620 332 625 q 324 633 311 632 q 299 630 279 624 l 272 641 l 407 695 l 429 695 l 429 177 q 429 141 430 119 q 430 98 432 85 q 433 72 436 66 q 439 61 444 57 q 453 49 466 50 q 479 51 499 59 l 504 42 z m 347 316 q 347 334 340 354 q 333 375 320 391 q 307 408 288 419 q 269 431 244 431 q 219 432 197 419 q 175 406 159 382 q 143 357 133 322 q 123 287 123 244 q 123 190 136 151 q 148 113 168 88 q 188 64 213 52 q 237 41 261 41 q 284 41 305 52 q 326 62 347 84 z"},"1":{"x_min":0,"x_max":500,"ha":500,"o":"m 129 0 l 129 19 q 160 19 177 22 q 195 26 203 37 q 211 47 213 67 q 215 86 215 118 l 215 516 q 215 536 213 551 q 211 567 206 578 q 201 589 191 594 q 181 599 165 596 q 148 593 124 582 l 118 598 l 278 677 l 295 677 l 295 118 q 295 86 297 66 q 298 47 306 36 q 313 26 330 22 q 347 19 378 19 l 378 0 z"},"5":{"x_min":0,"x_max":500,"ha":500,"o":"m 396 580 l 197 580 l 153 491 q 169 489 195 483 q 221 477 251 465 q 281 452 312 433 q 342 414 367 386 q 392 358 408 322 q 423 286 423 239 q 423 197 412 163 q 400 128 380 100 q 360 72 334 51 q 308 30 278 16 q 249 2 219 -5 q 189 -12 162 -12 q 133 -12 112 -6 q 90 -1 76 8 q 62 17 55 28 q 48 40 48 53 q 48 57 49 63 q 51 69 55 74 q 59 80 67 84 q 74 88 86 88 q 104 88 117 81 q 130 73 144 63 q 158 54 175 46 q 192 39 217 39 q 245 39 271 50 q 297 61 317 80 q 336 100 348 127 q 360 154 360 187 q 360 202 356 220 q 353 239 345 259 q 336 278 322 298 q 308 318 287 336 q 260 358 231 372 q 203 385 175 392 q 146 399 120 402 q 93 405 70 405 l 197 662 l 434 662 z"}}}
